<svg id="Layer_1" data-name="Layer 1" xmlns="http://www.w3.org/2000/svg" viewBox="0 0 1304 775"><defs><style>.cls-1{fill:#ff9e00;}.cls-2{fill:#1e2d95;}.cls-3{fill:#ff5266;}.cls-4,.cls-7,.cls-8{fill:#00612f;}.cls-4,.cls-7{stroke:#696969;stroke-miterlimit:10;}.cls-4{stroke-width:0.05px;}.cls-5{fill:#51dadf;}.cls-6{fill:#6d9b37;}.cls-7{stroke-width:0.03px;}</style></defs><title>Artboard 1</title><rect width="1304" height="775"/><rect class="cls-1" x="443.33" y="288.38" width="36.98" height="6.14" rx="3.07"/><path class="cls-2" d="M391.29,288.38h0a3.07,3.07,0,0,1,3.07,3.07v0a3.07,3.07,0,0,1-3.07,3.07h-3.07a0,0,0,0,1,0,0v-3.07a3.07,3.07,0,0,1,3.07-3.07Z"/><rect class="cls-1" x="538.35" y="288.38" width="6.14" height="6.14" rx="3.07" transform="translate(1082.85 582.9) rotate(-180)"/><path class="cls-3" d="M512.89,288.38H516a3.07,3.07,0,0,1,3.08,3.07h0a3.08,3.08,0,0,1-3.08,3.07h0a3.08,3.08,0,0,1-3.07-3.07Z"/><polygon class="cls-4" points="566.57 288.38 563.5 291.45 566.57 294.52 566.57 288.38"/><path class="cls-5" d="M-.18,288.38H75.2a3.07,3.07,0,0,1,3.07,3.07v0a3.07,3.07,0,0,1-3.07,3.07H-.18a0,0,0,0,1,0,0v-6.14A0,0,0,0,1-.18,288.38Z"/><rect class="cls-2" x="144.85" y="288.38" width="6.14" height="6.14" rx="3.07" transform="translate(295.84 582.9) rotate(-180)"/><path class="cls-3" d="M119.39,288.38h3.07a3.06,3.06,0,0,1,3.07,3.07h0a3.07,3.07,0,0,1-3.07,3.07h0a3.07,3.07,0,0,1-3.07-3.07Z"/><path class="cls-6" d="M173.07,294.52,170,291.45l3.07-3.07Z"/><rect class="cls-3" x="262.74" y="288.38" width="60.56" height="6.14" rx="3.07"/><rect class="cls-1" x="1070.04" y="288.38" width="24.56" height="6.14" rx="3.07"/><path class="cls-1" d="M1303.67,294.52H1280a3.08,3.08,0,0,1-3.07-3.07h0a3.07,3.07,0,0,1,3.07-3.07h23.63Z"/><path class="cls-2" d="M1027.31,288.38h0a3.07,3.07,0,0,1,3.07,3.07v0a3.07,3.07,0,0,1-3.07,3.07h-3.07a0,0,0,0,1,0,0v-3.07A3.07,3.07,0,0,1,1027.31,288.38Z"/><rect class="cls-1" x="1158.86" y="288.38" width="6.14" height="6.14" rx="3.07" transform="translate(2323.85 582.9) rotate(180)"/><path class="cls-3" d="M1133.39,288.38h3.07a3.07,3.07,0,0,1,3.08,3.07h0a3.08,3.08,0,0,1-3.08,3.07h0a3.08,3.08,0,0,1-3.07-3.07Z"/><polygon class="cls-4" points="1187.07 288.38 1184 291.45 1187.07 294.52 1187.07 288.38"/><rect class="cls-1" x="846.8" y="288.38" width="33.21" height="6.14" rx="3.07"/><rect class="cls-2" x="775.18" y="288.38" width="6.14" height="6.14" rx="3.07" transform="translate(1556.51 582.9) rotate(-180)"/><path class="cls-3" d="M749.72,288.38h3.07a3.06,3.06,0,0,1,3.07,3.07h0a3.07,3.07,0,0,1-3.07,3.07h0a3.08,3.08,0,0,1-3.07-3.07Z"/><path class="cls-6" d="M803.4,294.52l-3.07-3.07,3.07-3.07Z"/><rect class="cls-3" x="922.11" y="288.38" width="60.56" height="6.14" rx="3.07"/><path class="cls-2" d="M251.52,384.43h0a3.07,3.07,0,0,1,3.07,3.07v0a3.07,3.07,0,0,1-3.07,3.07h-3.07a0,0,0,0,1,0,0v-3.07A3.07,3.07,0,0,1,251.52,384.43Z"/><rect class="cls-3" x="414.87" y="384.43" width="136.29" height="6.14" rx="3.07"/><rect class="cls-2" x="92.74" y="384.5" width="6.14" height="6.14" rx="3.07" transform="translate(191.62 775.14) rotate(180)"/><polygon class="cls-4" points="120.08 384.5 117.01 387.57 120.08 390.64 120.08 384.5"/><rect class="cls-1" x="164.33" y="384.5" width="32.59" height="6.14" rx="3.07"/><path class="cls-7" d="M3.07,384.5h35a0,0,0,0,1,0,0v6.14a0,0,0,0,1,0,0h-35A3.07,3.07,0,0,1,0,387.57v0a3.07,3.07,0,0,1,3.07-3.07Z" transform="translate(38.06 775.14) rotate(-180)"/><rect class="cls-1" x="282.74" y="384.43" width="6.14" height="6.14"/><path class="cls-2" d="M932.31,384.43h0a3.07,3.07,0,0,1,3.07,3.07v0a3.07,3.07,0,0,1-3.07,3.07h-3.07a0,0,0,0,1,0,0v-3.07a3.07,3.07,0,0,1,3.07-3.07Z"/><rect class="cls-3" x="1053.12" y="384.43" width="136.29" height="6.14" rx="3.07"/><rect class="cls-2" x="773.53" y="384.5" width="6.14" height="6.14" rx="3.07" transform="translate(1553.21 775.14) rotate(180)"/><polygon class="cls-4" points="800.88 384.5 797.81 387.57 800.88 390.64 800.88 384.5"/><rect class="cls-1" x="845.13" y="384.5" width="32.59" height="6.14" rx="3.07"/><rect class="cls-3" x="642.12" y="384.5" width="39.95" height="6.14" rx="3.07"/><rect class="cls-1" x="963.54" y="384.43" width="6.14" height="6.14"/><path class="cls-1" d="M211.52,95.42h0a3.07,3.07,0,0,1,3.07,3.07v3.07a0,0,0,0,1,0,0h-3.07a3.07,3.07,0,0,1-3.07-3.07v0a3.07,3.07,0,0,1,3.07-3.07Z"/><rect class="cls-5" x="396.19" y="95.42" width="62.73" height="6.14" rx="3.07" transform="translate(855.11 196.98) rotate(180)"/><rect class="cls-2" x="476" y="95.42" width="6.14" height="6.14" rx="3.07" transform="translate(958.15 196.98) rotate(180)"/><rect class="cls-1" x="101.41" y="95.42" width="38.11" height="6.14" rx="3.07"/><rect class="cls-1" x="300.67" y="95.42" width="6.14" height="6.14" rx="3.07" transform="translate(607.48 196.98) rotate(-180)"/><path class="cls-3" d="M275.21,95.42h3.07a3.08,3.08,0,0,1,3.07,3.07h0a3.07,3.07,0,0,1-3.07,3.07h0a3.06,3.06,0,0,1-3.07-3.07Z"/><polygon class="cls-4" points="328.88 95.42 325.81 98.49 328.88 101.56 328.88 95.42"/><path class="cls-1" d="M1033.24,97h0a3.07,3.07,0,0,1,3.07,3.07v3.07a0,0,0,0,1,0,0h-3.07a3.07,3.07,0,0,1-3.07-3.07v0a3.07,3.07,0,0,1,3.07-3.07Z"/><path class="cls-3" d="M1187.35,103.12l-3.08-3.08,3.08-3.07Z"/><rect class="cls-4" x="1121.46" y="96.97" width="47.91" height="6.14" rx="3.07" transform="translate(2290.83 200.09) rotate(180)"/><rect class="cls-5" x="1050.17" y="96.97" width="34.78" height="6.14" rx="3.07" transform="translate(2135.12 200.09) rotate(-180)"/><rect class="cls-2" x="1098.54" y="96.97" width="6.14" height="6.14" rx="3.07" transform="translate(2203.22 200.09) rotate(-180)"/><rect class="cls-3" x="810.01" y="96.97" width="87.74" height="6.14" rx="3.07"/><rect class="cls-2" x="782.75" y="96.97" width="6.14" height="6.14" rx="3.07"/><rect class="cls-4" x="51.29" y="95.42" width="13.22" height="6.14" rx="3.07"/><path class="cls-3" d="M29.81,95.42h0a3.07,3.07,0,0,1,3.07,3.07v0a3.07,3.07,0,0,1-3.07,3.07H26.74a0,0,0,0,1,0,0V98.49a3.07,3.07,0,0,1,3.07-3.07Z"/><rect class="cls-1" x="431.51" y="128.24" width="58.1" height="6.14" rx="3.07"/><rect class="cls-5" x="240.09" y="128.21" width="89.35" height="6.14" rx="3.07"/><path class="cls-3" d="M358.86,128.21h0a3.07,3.07,0,0,1,3.07,3.07v0a3.07,3.07,0,0,1-3.07,3.07h-3.07a0,0,0,0,1,0,0v-3.07a3.07,3.07,0,0,1,3.07-3.07Z"/><rect class="cls-2" x="192.05" y="128.21" width="6.14" height="6.14" rx="3.07"/><rect class="cls-4" x="132.32" y="128.21" width="13.22" height="6.14" rx="3.07"/><rect class="cls-2" x="39.05" y="128.21" width="29.41" height="6.14" rx="3.07"/><path class="cls-3" d="M110.84,128.21h0a3.07,3.07,0,0,1,3.07,3.07v0a3.07,3.07,0,0,1-3.07,3.07h-3.07a0,0,0,0,1,0,0v-3.07a3.07,3.07,0,0,1,3.07-3.07Z"/><polygon class="cls-5" points="165.49 134.35 168.56 131.28 165.49 128.21 165.49 134.35"/><rect class="cls-3" x="1245.89" y="128.24" width="28.48" height="6.14" rx="3.07"/><rect class="cls-2" x="1218.71" y="128.21" width="6.14" height="6.14" transform="translate(2443.56 262.56) rotate(-180)"/><rect class="cls-4" x="1067.37" y="128.21" width="15.7" height="6.14" rx="3.07"/><rect class="cls-5" x="973.2" y="128.21" width="39.66" height="6.14" rx="3.07"/><rect class="cls-2" x="948.87" y="128.21" width="6.14" height="6.14" rx="3.07"/><rect class="cls-4" x="815.84" y="128.21" width="25.65" height="6.14" rx="3.07"/><polygon class="cls-5" points="888.76 134.35 891.84 131.28 888.76 128.21 888.76 134.35"/><rect class="cls-2" x="478.88" y="320.31" width="6.18" height="6.13"/><rect class="cls-4" x="233.96" y="320.44" width="12.81" height="6.14" rx="3.07" transform="translate(480.72 647.01) rotate(180)"/><rect class="cls-2" x="24.8" y="320.5" width="6.14" height="6.14" rx="3.07"/><path class="cls-3" d="M53,326.64H49.91a3.07,3.07,0,0,1-3.07-3.07h0a3.07,3.07,0,0,1,3.07-3.07h0A3.06,3.06,0,0,1,53,323.57Z"/><rect class="cls-1" x="320.7" y="320.47" width="32.43" height="6.14" rx="3.07"/><rect class="cls-3" x="402.65" y="320.47" width="54.33" height="6.14" rx="3.07"/><rect class="cls-2" x="373.02" y="320.47" width="6.14" height="6.14" rx="3.07"/><rect class="cls-8" x="78.86" y="320.5" width="81" height="6.14" rx="3.07"/><rect class="cls-2" x="202.61" y="320.5" width="6.14" height="6.14" rx="3.07" transform="translate(411.36 647.14) rotate(-180)"/><polygon class="cls-5" points="218.7 320.5 215.63 323.57 218.7 326.64 218.7 320.5"/><rect class="cls-2" x="1254.89" y="320.31" width="6.18" height="6.13"/><rect class="cls-2" x="549.6" y="320.5" width="6.14" height="6.14" rx="3.07"/><path class="cls-3" d="M577.78,326.64h-3.07a3.07,3.07,0,0,1-3.08-3.07h0a3.07,3.07,0,0,1,3.08-3.07h0a3.07,3.07,0,0,1,3.07,3.07Z"/><rect class="cls-5" x="1074.87" y="320.47" width="51.06" height="6.14" rx="3.07"/><rect class="cls-3" x="1192.63" y="320.47" width="48.82" height="6.14" rx="3.07"/><rect class="cls-2" x="1140.39" y="320.47" width="6.14" height="6.14" rx="3.07"/><rect class="cls-8" x="652.99" y="320.5" width="99.64" height="6.14" rx="3.07"/><rect class="cls-2" x="799.14" y="320.5" width="6.14" height="6.14" rx="3.07" transform="translate(1604.41 647.14) rotate(180)"/><path class="cls-5" d="M819.14,326.64l-3.07-3.07,3.07-3.07Z"/><path class="cls-3" d="M637.89,352.25H641a3.07,3.07,0,0,1,3.07,3.07h0a3.08,3.08,0,0,1-3.07,3.07h0a3.08,3.08,0,0,1-3.08-3.07Z"/><rect class="cls-2" x="607.21" y="352.56" width="6.14" height="6.14" rx="3.07"/><rect class="cls-5" x="168.64" y="352.63" width="100.77" height="6.14" rx="3.07"/><path class="cls-1" d="M18.59,358.77H0v-6.14H18.59a3.06,3.06,0,0,1,3.07,3.07h0A3.07,3.07,0,0,1,18.59,358.77Z"/><rect class="cls-2" x="66.14" y="352.63" width="6.14" height="6.14" rx="3.07"/><rect class="cls-3" x="366.82" y="352.56" width="6.14" height="6.14"/><rect class="cls-2" x="1133.53" y="352.56" width="79.31" height="6.14" rx="3.07"/><rect class="cls-2" x="1276.22" y="352.56" width="6.14" height="6.14" rx="3.07"/><rect class="cls-5" x="854.87" y="352.63" width="144.25" height="6.14" rx="3.07"/><rect class="cls-1" x="680.91" y="352.63" width="25.77" height="6.14" rx="3.07"/><rect class="cls-1" x="477.2" y="352.63" width="25.77" height="6.14" rx="3.07"/><rect class="cls-2" x="746.94" y="352.63" width="6.14" height="6.14" rx="3.07"/><rect class="cls-3" x="1047.62" y="352.56" width="6.14" height="6.14"/><rect class="cls-1" x="443.33" y="672.74" width="36.98" height="6.14" rx="3.07"/><path class="cls-2" d="M391.29,672.74h0a3.07,3.07,0,0,1,3.07,3.07v0a3.07,3.07,0,0,1-3.07,3.07h-3.07a0,0,0,0,1,0,0v-3.07a3.07,3.07,0,0,1,3.07-3.07Z"/><rect class="cls-1" x="538.35" y="672.74" width="6.14" height="6.14" rx="3.07" transform="translate(1082.85 1351.61) rotate(180)"/><path class="cls-3" d="M512.89,672.74H516a3.07,3.07,0,0,1,3.08,3.07h0a3.08,3.08,0,0,1-3.08,3.07h0a3.08,3.08,0,0,1-3.07-3.07Z"/><polygon class="cls-4" points="566.57 672.74 563.5 675.81 566.57 678.88 566.57 672.74"/><path class="cls-5" d="M-.18,672.74H75.2a3.07,3.07,0,0,1,3.07,3.07v0a3.07,3.07,0,0,1-3.07,3.07H-.18a0,0,0,0,1,0,0v-6.14a0,0,0,0,1,0,0Z"/><rect class="cls-2" x="144.85" y="672.74" width="6.14" height="6.14" rx="3.07" transform="translate(295.84 1351.61) rotate(180)"/><path class="cls-3" d="M119.39,672.74h3.07a3.06,3.06,0,0,1,3.07,3.07h0a3.07,3.07,0,0,1-3.07,3.07h0a3.07,3.07,0,0,1-3.07-3.07Z"/><path class="cls-6" d="M173.07,678.88,170,675.81l3.07-3.07Z"/><rect class="cls-2" x="262.74" y="672.74" width="60.56" height="6.14" rx="3.07"/><rect class="cls-1" x="1070.04" y="672.74" width="24.56" height="6.14" rx="3.07"/><path class="cls-1" d="M1303.67,678.88H1280a3.08,3.08,0,0,1-3.07-3.07h0a3.07,3.07,0,0,1,3.07-3.07h23.63Z"/><path class="cls-2" d="M1027.31,672.74h0a3.07,3.07,0,0,1,3.07,3.07v0a3.07,3.07,0,0,1-3.07,3.07h-3.07a0,0,0,0,1,0,0v-3.07a3.07,3.07,0,0,1,3.07-3.07Z"/><rect class="cls-1" x="1158.86" y="672.74" width="6.14" height="6.14" rx="3.07" transform="translate(2323.85 1351.61) rotate(-180)"/><path class="cls-3" d="M1133.39,672.74h3.07a3.07,3.07,0,0,1,3.08,3.07h0a3.08,3.08,0,0,1-3.08,3.07h0a3.08,3.08,0,0,1-3.07-3.07Z"/><polygon class="cls-4" points="1187.07 672.74 1184 675.81 1187.07 678.88 1187.07 672.74"/><rect class="cls-1" x="846.8" y="672.74" width="33.21" height="6.14" rx="3.07"/><rect class="cls-2" x="775.18" y="672.74" width="6.14" height="6.14" rx="3.07" transform="translate(1556.51 1351.61) rotate(180)"/><path class="cls-3" d="M749.72,672.74h3.07a3.06,3.06,0,0,1,3.07,3.07h0a3.07,3.07,0,0,1-3.07,3.07h0a3.08,3.08,0,0,1-3.07-3.07Z"/><path class="cls-6" d="M803.4,678.88l-3.07-3.07,3.07-3.07Z"/><rect class="cls-3" x="922.11" y="672.74" width="60.56" height="6.14" rx="3.07"/><path class="cls-2" d="M172.91,768.79h0a3.07,3.07,0,0,1,3.07,3.07v0a3.07,3.07,0,0,1-3.07,3.07h-3.07a0,0,0,0,1,0,0v-3.07A3.07,3.07,0,0,1,172.91,768.79Z"/><rect class="cls-3" x="336.26" y="768.79" width="136.29" height="6.14" rx="3.07"/><rect class="cls-2" x="14.13" y="768.86" width="6.14" height="6.14" rx="3.07" transform="translate(34.4 1543.86) rotate(180)"/><polygon class="cls-4" points="41.47 768.86 38.4 771.93 41.47 775 41.47 768.86"/><rect class="cls-1" x="85.73" y="768.86" width="32.59" height="6.14" rx="3.07"/><rect class="cls-1" x="204.14" y="768.79" width="6.14" height="6.14"/><path class="cls-2" d="M853.71,768.79h0a3.07,3.07,0,0,1,3.07,3.07v0a3.07,3.07,0,0,1-3.07,3.07h-3.07a0,0,0,0,1,0,0v-3.07A3.07,3.07,0,0,1,853.71,768.79Z"/><rect class="cls-3" x="974.51" y="768.79" width="136.29" height="6.14" rx="3.07"/><rect class="cls-2" x="694.93" y="768.86" width="6.14" height="6.14" rx="3.07" transform="translate(1396 1543.86) rotate(180)"/><polygon class="cls-4" points="722.27 768.86 719.2 771.93 722.27 775 722.27 768.86"/><rect class="cls-1" x="766.53" y="768.86" width="32.59" height="6.14" rx="3.07"/><rect class="cls-3" x="563.51" y="768.86" width="39.95" height="6.14" rx="3.07"/><rect class="cls-1" x="884.94" y="768.79" width="6.14" height="6.14"/><rect class="cls-2" x="478.88" y="704.67" width="6.18" height="6.13"/><rect class="cls-4" x="233.96" y="704.79" width="12.81" height="6.14" rx="3.07" transform="translate(480.72 1415.73) rotate(-180)"/><path class="cls-3" d="M53,711H49.91a3.07,3.07,0,0,1-3.07-3.07h0a3.07,3.07,0,0,1,3.07-3.07h0A3.06,3.06,0,0,1,53,707.93Z"/><rect class="cls-5" x="320.7" y="704.83" width="32.43" height="6.14" rx="3.07"/><rect class="cls-3" x="402.65" y="704.83" width="54.33" height="6.14" rx="3.07"/><rect class="cls-2" x="373.02" y="704.83" width="6.14" height="6.14" rx="3.07"/><rect class="cls-2" x="78.86" y="704.86" width="81" height="6.14" rx="3.07"/><rect class="cls-2" x="202.61" y="704.86" width="6.14" height="6.14" rx="3.07" transform="translate(411.36 1415.86) rotate(180)"/><polygon class="cls-5" points="218.7 704.86 215.63 707.93 218.7 711 218.7 704.86"/><rect class="cls-2" x="1254.89" y="704.67" width="6.18" height="6.13"/><rect class="cls-2" x="549.6" y="704.86" width="6.14" height="6.14" rx="3.07"/><path class="cls-3" d="M577.78,711h-3.07a3.07,3.07,0,0,1-3.08-3.07h0a3.07,3.07,0,0,1,3.08-3.07h0a3.07,3.07,0,0,1,3.07,3.07Z"/><rect class="cls-5" x="1074.87" y="704.83" width="51.06" height="6.14" rx="3.07"/><rect class="cls-3" x="1192.63" y="704.83" width="48.82" height="6.14" rx="3.07"/><rect class="cls-2" x="1140.39" y="704.83" width="6.14" height="6.14" rx="3.07"/><rect class="cls-8" x="652.99" y="704.86" width="99.64" height="6.14" rx="3.07"/><rect class="cls-2" x="799.14" y="704.86" width="6.14" height="6.14" rx="3.07" transform="translate(1604.41 1415.86) rotate(-180)"/><path class="cls-5" d="M819.14,711l-3.07-3.07,3.07-3.07Z"/><path class="cls-3" d="M637.89,736.61H641a3.07,3.07,0,0,1,3.07,3.07h0a3.08,3.08,0,0,1-3.07,3.07h0a3.08,3.08,0,0,1-3.08-3.07Z"/><rect class="cls-2" x="607.21" y="736.92" width="6.14" height="6.14" rx="3.07"/><rect class="cls-5" x="168.64" y="736.99" width="100.77" height="6.14" rx="3.07"/><rect class="cls-2" x="66.14" y="736.99" width="6.14" height="6.14" rx="3.07"/><rect class="cls-3" x="366.82" y="736.92" width="6.14" height="6.14"/><rect class="cls-2" x="1133.53" y="736.92" width="79.31" height="6.14" rx="3.07"/><rect class="cls-2" x="1276.22" y="736.92" width="6.14" height="6.14" rx="3.07"/><rect class="cls-5" x="854.87" y="736.99" width="144.25" height="6.14" rx="3.07"/><rect class="cls-1" x="680.91" y="736.99" width="25.77" height="6.14" rx="3.07"/><rect class="cls-1" x="477.2" y="736.99" width="25.77" height="6.14" rx="3.07"/><rect class="cls-2" x="746.94" y="736.99" width="6.14" height="6.14" rx="3.07"/><rect class="cls-3" x="1047.62" y="736.92" width="6.14" height="6.14"/><rect class="cls-2" x="86.58" y="160.06" width="6.14" height="6.14" rx="3.07"/><polygon class="cls-1" points="329.94 160.35 326.87 163.42 329.94 166.48 329.94 160.35"/><rect class="cls-2" x="341.86" y="160.06" width="6.14" height="6.14" rx="3.07"/><rect class="cls-3" x="406.1" y="160.06" width="16.55" height="6.14" rx="3.07"/><rect class="cls-3" x="281.32" y="160.42" width="27.52" height="6.14" rx="3.07"/><rect class="cls-3" x="458.75" y="160.42" width="6.14" height="6.14"/><path class="cls-4" d="M368.47,166.56l-3.07-3.07,3.07-3.07Z"/><rect class="cls-1" x="936.73" y="160.03" width="23.92" height="6.14" rx="3.07"/><path class="cls-6" d="M974.69,160h3.07v3.07a3.06,3.06,0,0,1-3.07,3.07h0a3.06,3.06,0,0,1-3.07-3.07h0A3.06,3.06,0,0,1,974.69,160Z"/><polygon class="cls-1" points="1082.22 160.32 1079.15 163.38 1082.22 166.44 1082.22 160.32"/><rect class="cls-2" x="1094.14" y="160.03" width="6.14" height="6.14" rx="3.07"/><rect class="cls-3" x="1115.64" y="160.03" width="41.39" height="6.14" rx="3.07"/><path class="cls-2" d="M1220.26,160h80.67a3.07,3.07,0,0,1,3.07,3.07v0a3.07,3.07,0,0,1-3.07,3.07h-80.67a0,0,0,0,1,0,0V160A0,0,0,0,1,1220.26,160Z" transform="translate(2524.26 326.2) rotate(180)"/><rect class="cls-2" x="914.56" y="160.49" width="6.14" height="6.14" transform="translate(1835.26 327.11) rotate(-180)"/><rect class="cls-3" x="1061.11" y="160.42" width="6.14" height="6.14"/><path class="cls-4" d="M1033.74,166.56l-3.07-3.07,3.07-3.07Z"/><path class="cls-3" d="M34.08,166.63H0v-6.14H34.08a3.07,3.07,0,0,1,3.07,3.07h0A3.08,3.08,0,0,1,34.08,166.63Z"/><rect class="cls-2" x="279.43" y="192.25" width="6.14" height="6.14" rx="3.07"/><rect class="cls-4" x="219.7" y="192.25" width="13.22" height="6.14" rx="3.07"/><path class="cls-3" d="M198.22,192.25h0a3.07,3.07,0,0,1,3.07,3.07v0a3.07,3.07,0,0,1-3.07,3.07h-3.07a0,0,0,0,1,0,0v-3.07A3.07,3.07,0,0,1,198.22,192.25Z"/><polygon class="cls-5" points="252.87 198.4 255.94 195.33 252.87 192.25 252.87 198.4"/><path class="cls-2" d="M375.39,192.32h0a3.07,3.07,0,0,1,3.07,3.07v0a3.07,3.07,0,0,1-3.07,3.07h-3.07a0,0,0,0,1,0,0v-3.07A3.07,3.07,0,0,1,375.39,192.32Z" transform="translate(750.78 390.78) rotate(180)"/><rect class="cls-3" x="85.33" y="192.32" width="64.8" height="6.14" rx="3.07"/><polygon class="cls-4" points="506.83 198.4 509.9 195.33 506.83 192.25 506.83 198.4"/><rect class="cls-1" x="429.98" y="192.25" width="32.59" height="6.14" rx="3.07"/><rect class="cls-1" x="338.02" y="192.32" width="6.14" height="6.14"/><path class="cls-2" d="M1056.19,192.32h0a3.07,3.07,0,0,1,3.07,3.07v0a3.07,3.07,0,0,1-3.07,3.07h-3.07a0,0,0,0,1,0,0v-3.07a3.07,3.07,0,0,1,3.07-3.07Z" transform="translate(2112.38 390.78) rotate(180)"/><rect class="cls-7" x="838.35" y="192.32" width="109.51" height="6.14" rx="3.07"/><rect class="cls-2" x="1208.82" y="192.25" width="6.14" height="6.14" rx="3.07"/><polygon class="cls-4" points="1187.62 198.4 1190.69 195.33 1187.62 192.25 1187.62 198.4"/><path class="cls-7" d="M1271.47,192.25H1304a0,0,0,0,1,0,0v6.14a0,0,0,0,1,0,0h-32.53a3.07,3.07,0,0,1-3.07-3.07v0A3.07,3.07,0,0,1,1271.47,192.25Z"/><rect class="cls-1" x="1018.82" y="192.32" width="6.14" height="6.14"/><rect class="cls-2" x="58.73" y="256.48" width="6.18" height="6.13" transform="translate(123.64 519.08) rotate(-180)"/><rect class="cls-4" x="342.3" y="256.34" width="12.81" height="6.14" rx="3.07"/><rect class="cls-5" x="287.99" y="256.31" width="32.43" height="6.14" rx="3.07" transform="translate(608.41 518.76) rotate(180)"/><rect class="cls-2" x="114.68" y="256.31" width="79.88" height="6.14" rx="3.07" transform="translate(309.23 518.76) rotate(-180)"/><rect class="cls-2" x="213.48" y="256.31" width="6.14" height="6.14" rx="3.07" transform="translate(433.1 518.76) rotate(180)"/><rect class="cls-2" x="481.87" y="256.28" width="6.14" height="6.14" rx="3.07"/><polygon class="cls-5" points="371.23 262.42 374.3 259.35 371.23 256.28 371.23 262.42"/><rect class="cls-2" x="1206.38" y="256.23" width="6.14" height="6.14" rx="3.07" transform="translate(2418.9 518.61) rotate(180)"/><path class="cls-3" d="M1192.11,256.23h3.07a3.08,3.08,0,0,1,3.07,3.07h0a3.07,3.07,0,0,1-3.07,3.07h0a3.06,3.06,0,0,1-3.07-3.07Z"/><rect class="cls-8" x="1092.99" y="256.23" width="81" height="6.14" rx="3.07" transform="translate(2266.98 518.61) rotate(-180)"/><rect class="cls-2" x="813.37" y="256.23" width="81" height="6.14" rx="3.07" transform="translate(1707.75 518.61) rotate(-180)"/><rect class="cls-2" x="1065.84" y="256.23" width="6.14" height="6.14" rx="3.07"/><polygon class="cls-5" points="1055.89 262.37 1058.96 259.3 1055.89 256.23 1055.89 262.37"/><path class="cls-3" d="M30.26,230.65H27.19a3.07,3.07,0,0,1-3.07-3.07h0a3.06,3.06,0,0,1,3.07-3.07h0a3.06,3.06,0,0,1,3.07,3.07Z"/><rect class="cls-2" x="52.37" y="224.19" width="6.14" height="6.14" rx="3.07" transform="translate(110.89 454.52) rotate(-180)"/><rect class="cls-5" x="341.72" y="224.13" width="91.45" height="6.14" rx="3.07" transform="translate(774.89 454.39) rotate(180)"/><rect class="cls-3" x="253.94" y="224.19" width="6.14" height="6.14"/><rect class="cls-5" x="1003.36" y="224.13" width="131.83" height="6.14" rx="3.07" transform="translate(2138.54 454.39) rotate(180)"/><path class="cls-1" d="M1288,224.13h16v6.14h-16a3.08,3.08,0,0,1-3.07-3.07h0A3.07,3.07,0,0,1,1288,224.13Z"/><rect class="cls-2" x="1235.42" y="224.13" width="6.14" height="6.14" rx="3.07" transform="translate(2476.98 454.39) rotate(-180)"/><rect class="cls-3" x="934.74" y="224.19" width="6.14" height="6.14"/><rect class="cls-2" x="48.32" y="481.21" width="6.14" height="6.14" rx="3.07" transform="translate(102.79 968.57) rotate(-180)"/><path class="cls-3" d="M22.86,481.21h3.07A3.07,3.07,0,0,1,29,484.28h0a3.07,3.07,0,0,1-3.07,3.08h0a3.08,3.08,0,0,1-3.07-3.08Z"/><path class="cls-6" d="M76.54,487.36l-3.07-3.08,3.07-3.07Z"/><rect class="cls-3" x="166.21" y="481.21" width="60.56" height="6.14" rx="3.07"/><rect class="cls-2" x="1056.68" y="480.89" width="6.14" height="6.14" rx="3.07"/><rect class="cls-4" x="996.95" y="480.89" width="13.22" height="6.14" rx="3.07"/><path class="cls-3" d="M975.47,480.89h0a3.07,3.07,0,0,1,3.07,3.07v0a3.07,3.07,0,0,1-3.07,3.07H972.4a0,0,0,0,1,0,0V484A3.07,3.07,0,0,1,975.47,480.89Z"/><polygon class="cls-5" points="1030.12 487.03 1033.19 483.96 1030.12 480.89 1030.12 487.03"/><path class="cls-2" d="M1152.64,481h0a3.07,3.07,0,0,1,3.07,3.07v0a3.07,3.07,0,0,1-3.07,3.07h-3.07a0,0,0,0,1,0,0V484a3.07,3.07,0,0,1,3.07-3.07Z" transform="translate(2305.29 968.05) rotate(180)"/><rect class="cls-3" x="862.59" y="480.95" width="64.8" height="6.14" rx="3.07"/><polygon class="cls-4" points="1284.08 487.03 1287.15 483.96 1284.08 480.89 1284.08 487.03"/><rect class="cls-1" x="1207.23" y="480.89" width="32.59" height="6.14" rx="3.07"/><rect class="cls-1" x="1115.27" y="480.95" width="6.14" height="6.14"/><rect class="cls-1" x="383.44" y="479.9" width="23.92" height="6.14" rx="3.07"/><path class="cls-6" d="M421.4,479.9h3.07V483A3.06,3.06,0,0,1,421.4,486h0a3.07,3.07,0,0,1-3.07-3.07h0A3.07,3.07,0,0,1,421.4,479.9Z"/><polygon class="cls-1" points="528.93 480.19 525.87 483.25 528.93 486.31 528.93 480.19"/><rect class="cls-2" x="540.85" y="479.9" width="6.14" height="6.14" rx="3.07"/><rect class="cls-3" x="562.36" y="479.9" width="41.39" height="6.14" rx="3.07"/><rect class="cls-2" x="708.14" y="479.9" width="83.74" height="6.14" rx="3.07" transform="translate(1500.02 965.94) rotate(180)"/><rect class="cls-2" x="361.27" y="480.36" width="6.14" height="6.14" transform="translate(728.68 966.86) rotate(-180)"/><rect class="cls-3" x="507.82" y="480.29" width="6.14" height="6.14"/><path class="cls-4" d="M480.45,486.44l-3.07-3.08,3.07-3.07Z"/><rect class="cls-4" x="81.55" y="417.98" width="12.81" height="6.14" rx="3.07" transform="translate(175.91 842.11) rotate(180)"/><rect class="cls-2" x="50.21" y="418.05" width="6.14" height="6.14" rx="3.07" transform="translate(106.56 842.24) rotate(180)"/><polygon class="cls-5" points="66.3 418.05 63.23 421.12 66.3 424.19 66.3 418.05"/><rect class="cls-3" x="157.41" y="415.13" width="6.14" height="6.14"/><rect class="cls-1" x="1208.76" y="414.98" width="58.1" height="6.14" rx="3.07"/><rect class="cls-5" x="1017.34" y="414.95" width="89.35" height="6.14" rx="3.07"/><path class="cls-3" d="M1136.11,414.95h0a3.07,3.07,0,0,1,3.07,3.07v0a3.07,3.07,0,0,1-3.07,3.07H1133a0,0,0,0,1,0,0V418a3.07,3.07,0,0,1,3.07-3.07Z"/><rect class="cls-2" x="969.3" y="414.95" width="6.14" height="6.14" rx="3.07"/><rect class="cls-4" x="909.58" y="414.95" width="13.22" height="6.14" rx="3.07"/><rect class="cls-2" x="816.3" y="414.95" width="29.41" height="6.14" rx="3.07"/><path class="cls-3" d="M888.09,414.95h0a3.07,3.07,0,0,1,3.07,3.07v0a3.07,3.07,0,0,1-3.07,3.07H885a0,0,0,0,1,0,0V418A3.07,3.07,0,0,1,888.09,414.95Z"/><polygon class="cls-5" points="942.75 421.09 945.82 418.02 942.75 414.94 942.75 421.09"/><path class="cls-1" d="M480,414.95h0A3.07,3.07,0,0,1,483,418v3.07a0,0,0,0,1,0,0H480a3.07,3.07,0,0,1-3.07-3.07v0a3.07,3.07,0,0,1,3.07-3.07Z"/><path class="cls-3" d="M634.06,421.09,631,418l3.07-3.07Z"/><rect class="cls-4" x="568.17" y="414.95" width="47.91" height="6.14" rx="3.07" transform="translate(1184.26 836.03) rotate(180)"/><rect class="cls-5" x="496.88" y="414.95" width="34.78" height="6.14" rx="3.07" transform="translate(1028.54 836.03) rotate(180)"/><rect class="cls-2" x="545.25" y="414.95" width="6.14" height="6.14" rx="3.07" transform="translate(1096.64 836.03) rotate(-180)"/><rect class="cls-3" x="298.43" y="414.95" width="87.74" height="6.14" rx="3.07"/><rect class="cls-2" x="229.46" y="414.95" width="6.14" height="6.14" rx="3.07"/><rect class="cls-5" x="191.46" y="449.06" width="32.43" height="6.14" rx="3.07" transform="translate(415.36 904.26) rotate(180)"/><rect class="cls-2" x="18.15" y="449.06" width="79.88" height="6.14" rx="3.07" transform="translate(116.18 904.26) rotate(-180)"/><rect class="cls-2" x="116.95" y="449.06" width="6.14" height="6.14" rx="3.07" transform="translate(240.04 904.26) rotate(180)"/><rect class="cls-2" x="863.83" y="448.61" width="6.14" height="6.14" rx="3.07"/><polygon class="cls-1" points="1107.19 448.9 1104.13 451.96 1107.19 455.02 1107.19 448.9"/><rect class="cls-2" x="1119.11" y="448.61" width="6.14" height="6.14" rx="3.07"/><rect class="cls-3" x="1183.36" y="448.61" width="16.55" height="6.14" rx="3.07"/><rect class="cls-3" x="1058.57" y="448.97" width="27.52" height="6.14" rx="3.07"/><rect class="cls-3" x="1236.01" y="448.97" width="6.14" height="6.14"/><path class="cls-4" d="M1145.72,455.11l-3.07-3.07,3.07-3.07Z"/><path class="cls-3" d="M811.33,455.17H777.25V449h34.08a3.07,3.07,0,0,1,3.07,3.07h0A3.06,3.06,0,0,1,811.33,455.17Z"/><rect class="cls-3" x="692.6" y="448.03" width="28.48" height="6.14" rx="3.07"/><rect class="cls-2" x="665.42" y="447.99" width="6.14" height="6.14" transform="translate(1336.99 902.13) rotate(-180)"/><rect class="cls-4" x="514.08" y="447.99" width="15.7" height="6.14" rx="3.07"/><rect class="cls-5" x="419.91" y="447.99" width="39.66" height="6.14" rx="3.07"/><rect class="cls-2" x="395.58" y="447.99" width="6.14" height="6.14" rx="3.07"/><rect class="cls-4" x="262.55" y="447.99" width="25.65" height="6.14" rx="3.07"/><polygon class="cls-5" points="335.48 454.14 338.55 451.07 335.48 448 335.48 454.14"/><path class="cls-3" d="M807.51,519.12h-3.07a3.07,3.07,0,0,1-3.07-3.07h0a3.07,3.07,0,0,1,3.07-3.07h0a3.06,3.06,0,0,1,3.07,3.07Z"/><rect class="cls-2" x="829.63" y="512.66" width="6.14" height="6.14" rx="3.07" transform="translate(1665.4 1031.47) rotate(-180)"/><rect class="cls-5" x="1118.97" y="512.6" width="91.45" height="6.14" rx="3.07" transform="translate(2329.4 1031.34) rotate(180)"/><rect class="cls-3" x="1031.19" y="512.66" width="6.14" height="6.14"/><rect class="cls-1" x="21.4" y="512.75" width="23.92" height="6.14" rx="3.07"/><path class="cls-6" d="M59.36,512.75h3.07v3.07a3.07,3.07,0,0,1-3.07,3.07h0a3.06,3.06,0,0,1-3.07-3.07h0A3.07,3.07,0,0,1,59.36,512.75Z"/><polygon class="cls-1" points="166.88 513.04 163.82 516.1 166.88 519.16 166.88 513.04"/><rect class="cls-2" x="178.8" y="512.75" width="6.14" height="6.14" rx="3.07"/><rect class="cls-1" x="200.31" y="512.75" width="41.39" height="6.14" rx="3.07"/><rect class="cls-2" x="-0.78" y="513.21" width="6.14" height="6.14" transform="translate(4.59 1032.56) rotate(-180)"/><rect class="cls-3" x="145.78" y="513.14" width="6.14" height="6.14"/><path class="cls-4" d="M118.4,519.29l-3.07-3.07,3.07-3.08Z"/><path class="cls-2" d="M502.9,512h0A3.07,3.07,0,0,1,506,515.1v0a3.07,3.07,0,0,1-3.07,3.07h-3.07a0,0,0,0,1,0,0V515.1A3.07,3.07,0,0,1,502.9,512Z" transform="translate(1005.8 1030.2) rotate(180)"/><rect class="cls-7" x="285.07" y="512.03" width="109.51" height="6.14" rx="3.07"/><rect class="cls-2" x="655.54" y="511.96" width="6.14" height="6.14" rx="3.07"/><polygon class="cls-4" points="634.34 518.11 637.41 515.03 634.34 511.96 634.34 518.11"/><rect class="cls-7" x="715.11" y="511.96" width="35.6" height="6.14" rx="3.07"/><rect class="cls-1" x="465.53" y="512.03" width="6.14" height="6.14"/><rect class="cls-5" x="469.98" y="544.58" width="131.83" height="6.14" rx="3.07" transform="translate(1071.78 1095.31) rotate(180)"/><rect class="cls-1" x="836.49" y="544.58" width="185.99" height="6.14" rx="3.07"/><rect class="cls-2" x="702.04" y="544.58" width="6.14" height="6.14" rx="3.07" transform="translate(1410.22 1095.31) rotate(180)"/><rect class="cls-3" x="401.36" y="544.65" width="6.14" height="6.14"/><rect class="cls-2" x="441.78" y="63.39" width="86.67" height="6.14" rx="3.07"/><path class="cls-2" d="M391.29,63.39h0a3.07,3.07,0,0,1,3.07,3.07v0a3.07,3.07,0,0,1-3.07,3.07h-3.07a0,0,0,0,1,0,0V66.46A3.07,3.07,0,0,1,391.29,63.39Z"/><rect class="cls-1" x="600.47" y="63.39" width="6.14" height="6.14" rx="3.07" transform="translate(1207.07 132.92) rotate(180)"/><path class="cls-3" d="M575,63.39h3.08a3.08,3.08,0,0,1,3.07,3.07h0a3.07,3.07,0,0,1-3.07,3.07h0A3.07,3.07,0,0,1,575,66.46Z"/><polygon class="cls-4" points="659.8 63.39 656.73 66.46 659.8 69.53 659.8 63.39"/><rect class="cls-1" x="173.27" y="63.39" width="37.94" height="6.14" rx="3.07"/><rect class="cls-2" x="108.94" y="63.39" width="6.14" height="6.14" rx="3.07" transform="translate(224.03 132.92) rotate(180)"/><path class="cls-6" d="M141.85,69.53l-3.07-3.07,3.07-3.07Z"/><rect class="cls-1" x="1114.81" y="64.94" width="24.56" height="6.14" rx="3.07"/><path class="cls-1" d="M1304,71.09h-23.63A3.07,3.07,0,0,1,1277.3,68h0a3.07,3.07,0,0,1,3.07-3.07H1304Z"/><path class="cls-2" d="M1072.08,64.94h0a3.07,3.07,0,0,1,3.07,3.07v0a3.07,3.07,0,0,1-3.07,3.07H1069a0,0,0,0,1,0,0V68a3.07,3.07,0,0,1,3.07-3.07Z"/><rect class="cls-1" x="1203.62" y="64.94" width="6.14" height="6.14" rx="3.07" transform="translate(2413.39 136.03) rotate(-180)"/><path class="cls-3" d="M1178.16,64.94h3.07a3.08,3.08,0,0,1,3.08,3.07h0a3.08,3.08,0,0,1-3.08,3.08h0a3.08,3.08,0,0,1-3.07-3.08Z"/><polygon class="cls-4" points="1231.84 64.94 1228.77 68.02 1231.84 71.09 1231.84 64.94"/><rect class="cls-2" x="735.39" y="64.94" width="6.14" height="6.14" rx="3.07" transform="translate(1476.93 136.03) rotate(180)"/><path class="cls-6" d="M768.3,71.09,765.23,68l3.07-3.07Z"/><rect class="cls-3" x="976.52" y="64.94" width="60.56" height="6.14" rx="3.07"/><rect class="cls-1" x="521.56" y="32.04" width="33.53" height="6.14" rx="3.07"/><rect class="cls-4" x="275.68" y="32.11" width="12.81" height="6.14" rx="3.07"/><rect class="cls-2" x="472.13" y="32.04" width="6.14" height="6.14" rx="3.07" transform="translate(950.41 70.23) rotate(180)"/><path class="cls-3" d="M440.4,32h3.07a3.08,3.08,0,0,1,3.08,3.08h0a3.08,3.08,0,0,1-3.08,3.07h0a3.08,3.08,0,0,1-3.07-3.07Z"/><rect class="cls-5" x="224.14" y="32.08" width="32.43" height="6.14" rx="3.07" transform="translate(480.72 70.3) rotate(180)"/><path class="cls-3" d="M0,32.08H81.23a3.07,3.07,0,0,1,3.07,3.07h0a3.08,3.08,0,0,1-3.07,3.07H0Z"/><rect class="cls-2" x="118.81" y="32.08" width="6.14" height="6.14" rx="3.07" transform="translate(243.76 70.3) rotate(180)"/><rect class="cls-8" x="341.25" y="32.04" width="81" height="6.14" rx="3.07" transform="translate(763.49 70.23) rotate(-180)"/><polygon class="cls-5" points="306.75 38.19 309.82 35.12 306.75 32.05 306.75 38.19"/><rect class="cls-1" x="671.52" y="32.04" width="24.06" height="6.14" rx="3.07"/><rect class="cls-2" x="832.98" y="32.25" width="6.18" height="6.13" transform="translate(1672.14 70.62) rotate(-180)"/><rect class="cls-4" x="1096.37" y="32.11" width="12.81" height="6.14" rx="3.07"/><rect class="cls-2" x="1268.03" y="32.04" width="6.14" height="6.14" rx="3.07" transform="translate(2542.2 70.23) rotate(180)"/><path class="cls-3" d="M1253.75,32h3.08a3.08,3.08,0,0,1,3.07,3.08h0a3.08,3.08,0,0,1-3.07,3.07h0a3.08,3.08,0,0,1-3.08-3.07Z"/><rect class="cls-5" x="938.61" y="32.08" width="63.49" height="6.14" rx="3.07" transform="translate(1940.7 70.3) rotate(180)"/><rect class="cls-3" x="852.59" y="32.08" width="48.82" height="6.14" rx="3.07"/><rect class="cls-2" x="916.46" y="32.08" width="6.14" height="6.14" rx="3.07" transform="translate(1839.05 70.3) rotate(-180)"/><rect class="cls-8" x="1154.64" y="32.04" width="81" height="6.14" rx="3.07" transform="translate(2390.28 70.23) rotate(-180)"/><rect class="cls-2" x="1127.49" y="32.04" width="6.14" height="6.14" rx="3.07"/><polygon class="cls-5" points="1117.54 38.19 1120.61 35.12 1117.54 32.05 1117.54 38.19"/><path class="cls-3" d="M91,6.4H88a3.07,3.07,0,0,1-3.08-3.07h0A3.07,3.07,0,0,1,88,.26h0A3.07,3.07,0,0,1,91,3.33Z"/><rect class="cls-2" x="131.19" y="0.01" width="205.08" height="6.14" rx="3.07" transform="translate(467.47 6.15) rotate(180)"/><rect class="cls-2" x="107.5" y="0.01" width="6.14" height="6.14" rx="3.07" transform="translate(221.14 6.15) rotate(180)"/><rect class="cls-5" x="409.03" y="-0.05" width="138.04" height="6.14" rx="3.07" transform="translate(956.09 6.05) rotate(180)"/><rect class="cls-1" x="612" y="-0.05" width="70.55" height="6.14" rx="3.07"/><rect class="cls-2" x="576.19" y="-0.05" width="6.14" height="6.14" rx="3.07" transform="translate(1158.52 6.05) rotate(-180)"/><rect class="cls-3" x="360.49" y="0.01" width="6.14" height="6.14"/><path class="cls-3" d="M715,6.4h-3.07a3.06,3.06,0,0,1-3.07-3.07h0A3.06,3.06,0,0,1,711.92.26h0A3.06,3.06,0,0,1,715,3.33Z"/><rect class="cls-2" x="745.7" y="0.01" width="79.31" height="6.14" rx="3.07" transform="translate(1570.72 6.15) rotate(180)"/><rect class="cls-2" x="731.45" y="0.01" width="6.14" height="6.14" rx="3.07" transform="translate(1469.05 6.15) rotate(180)"/><rect class="cls-5" x="953.66" y="-0.05" width="100.77" height="6.14" rx="3.07" transform="translate(2008.1 6.05) rotate(180)"/><path class="cls-1" d="M1160.68,0h15.63V6.1h-15.63A3.07,3.07,0,0,1,1157.61,3h0A3.07,3.07,0,0,1,1160.68,0Z"/><rect class="cls-2" x="1120.83" y="-0.05" width="6.14" height="6.14" rx="3.07" transform="translate(2247.8 6.05) rotate(-180)"/><rect class="cls-3" x="880.28" y="0.01" width="6.14" height="6.14"/><rect class="cls-2" x="775.55" y="577.42" width="86.67" height="6.14" rx="3.07" transform="translate(1637.77 1160.99) rotate(-180)"/><path class="cls-2" d="M912.71,577.42h0a3.07,3.07,0,0,1,3.07,3.07v0a3.07,3.07,0,0,1-3.07,3.07h-3.07a0,0,0,0,1,0,0v-3.07A3.07,3.07,0,0,1,912.71,577.42Z" transform="translate(1825.43 1160.99) rotate(180)"/><rect class="cls-1" x="697.39" y="577.42" width="6.14" height="6.14" rx="3.07"/><path class="cls-3" d="M729,583.56h-3.08a3.07,3.07,0,0,1-3.07-3.07h0a3.08,3.08,0,0,1,3.07-3.07h0a3.08,3.08,0,0,1,3.08,3.07Z"/><polygon class="cls-4" points="644.2 583.57 647.27 580.49 644.2 577.42 644.2 583.57"/><rect class="cls-1" x="1092.79" y="577.42" width="37.94" height="6.14" rx="3.07"/><rect class="cls-2" x="1188.92" y="577.42" width="6.14" height="6.14" rx="3.07"/><path class="cls-6" d="M1162.15,577.42l3.07,3.07-3.07,3.07Z"/><rect class="cls-1" x="164.63" y="575.87" width="24.56" height="6.14" rx="3.07"/><path class="cls-1" d="M0,575.87H23.63a3.06,3.06,0,0,1,3.07,3.07h0A3.06,3.06,0,0,1,23.63,582H0Z"/><path class="cls-2" d="M231.92,575.87h0a3.07,3.07,0,0,1,3.07,3.07v0a3.07,3.07,0,0,1-3.07,3.07h-3.07a0,0,0,0,1,0,0v-3.07A3.07,3.07,0,0,1,231.92,575.87Z" transform="translate(463.83 1157.88) rotate(180)"/><rect class="cls-1" x="94.23" y="575.87" width="6.14" height="6.14" rx="3.07"/><path class="cls-3" d="M125.84,582h-3.07a3.07,3.07,0,0,1-3.08-3.07h0a3.07,3.07,0,0,1,3.08-3.07h0a3.07,3.07,0,0,1,3.07,3.07Z"/><polygon class="cls-4" points="72.16 582.01 75.23 578.94 72.16 575.87 72.16 582.01"/><rect class="cls-2" x="562.47" y="575.87" width="6.14" height="6.14" rx="3.07"/><path class="cls-6" d="M535.7,575.87l3.07,3.07L535.7,582Z"/><rect class="cls-3" x="266.92" y="575.87" width="60.56" height="6.14" rx="3.07"/><rect class="cls-1" x="748.91" y="608.77" width="33.53" height="6.14" rx="3.07"/><rect class="cls-4" x="1015.51" y="608.7" width="12.81" height="6.14" rx="3.07" transform="translate(2043.82 1223.55) rotate(180)"/><rect class="cls-2" x="825.73" y="608.77" width="6.14" height="6.14" rx="3.07"/><path class="cls-3" d="M863.6,614.91h-3.07a3.07,3.07,0,0,1-3.08-3.07h0a3.07,3.07,0,0,1,3.08-3.07h0a3.07,3.07,0,0,1,3.07,3.07Z"/><rect class="cls-5" x="1047.42" y="608.74" width="32.43" height="6.14" rx="3.07"/><path class="cls-3" d="M1304,614.88h-81.23a3.08,3.08,0,0,1-3.07-3.07h0a3.07,3.07,0,0,1,3.07-3.07H1304Z"/><rect class="cls-2" x="1179.05" y="608.74" width="6.14" height="6.14" rx="3.07"/><rect class="cls-8" x="881.75" y="608.77" width="81" height="6.14" rx="3.07"/><polygon class="cls-5" points="997.25 608.77 994.17 611.84 997.25 614.91 997.25 608.77"/><rect class="cls-1" x="608.43" y="608.77" width="24.06" height="6.14" rx="3.07"/><rect class="cls-2" x="464.84" y="608.58" width="6.18" height="6.13"/><rect class="cls-4" x="194.82" y="608.7" width="12.81" height="6.14" rx="3.07" transform="translate(402.45 1223.55) rotate(180)"/><rect class="cls-2" x="29.83" y="608.77" width="6.14" height="6.14" rx="3.07"/><path class="cls-3" d="M50.25,614.91H47.17a3.07,3.07,0,0,1-3.07-3.07h0a3.07,3.07,0,0,1,3.07-3.07h0a3.07,3.07,0,0,1,3.08,3.07Z"/><rect class="cls-1" x="301.91" y="608.74" width="63.49" height="6.14" rx="3.07"/><rect class="cls-2" x="402.58" y="608.74" width="48.82" height="6.14" rx="3.07"/><rect class="cls-2" x="381.4" y="608.74" width="6.14" height="6.14" rx="3.07"/><rect class="cls-2" x="170.37" y="608.77" width="6.14" height="6.14" rx="3.07" transform="translate(346.88 1223.68) rotate(180)"/><polygon class="cls-5" points="186.46 608.77 183.39 611.84 186.46 614.91 186.46 608.77"/><path class="cls-3" d="M1213,640.55H1216a3.08,3.08,0,0,1,3.08,3.07h0a3.08,3.08,0,0,1-3.08,3.08h0a3.08,3.08,0,0,1-3.07-3.08Z"/><rect class="cls-2" x="967.72" y="640.81" width="205.08" height="6.14" rx="3.07"/><rect class="cls-2" x="1190.36" y="640.81" width="6.14" height="6.14" rx="3.07"/><rect class="cls-5" x="756.94" y="640.86" width="138.04" height="6.14" rx="3.07"/><rect class="cls-1" x="621.45" y="640.86" width="70.55" height="6.14" rx="3.07"/><rect class="cls-2" x="721.67" y="640.86" width="6.14" height="6.14" rx="3.07"/><rect class="cls-3" x="937.37" y="640.81" width="6.14" height="6.14"/><path class="cls-3" d="M589,640.55h3.07a3.07,3.07,0,0,1,3.07,3.07h0a3.07,3.07,0,0,1-3.07,3.08h0a3.07,3.07,0,0,1-3.07-3.08Z"/><rect class="cls-2" x="478.99" y="640.81" width="79.31" height="6.14" rx="3.07"/><rect class="cls-2" x="566.4" y="640.81" width="6.14" height="6.14" rx="3.07"/><rect class="cls-1" x="121.39" y="640.86" width="100.77" height="6.14" rx="3.07"/><path class="cls-1" d="M15.15,647H-.48v-6.14H15.15a3.07,3.07,0,0,1,3.07,3.07h0A3.07,3.07,0,0,1,15.15,647Z"/><rect class="cls-2" x="48.86" y="640.86" width="6.14" height="6.14" rx="3.07"/><rect class="cls-3" x="417.57" y="640.81" width="6.14" height="6.14"/></svg>